<!-- This Source Code Form is subject to the terms of the Mozilla Public
   - License, v. 2.0. If a copy of the MPL was not distributed with this
   - file, You can obtain one at http://mozilla.org/MPL/2.0/. -->
<svg id="svg2" xmlns:rdf="http://www.w3.org/1999/02/22-rdf-syntax-ns#" xmlns="http://www.w3.org/2000/svg" height="64" width="64" version="1.1" xmlns:cc="http://creativecommons.org/ns#" xmlns:dc="http://purl.org/dc/elements/1.1/" viewBox="0 0 64 64">
<g id="g4216" transform="translate(.32067 .10855)">
<ellipse id="ellipse4" fill-opacity=".1" rx="29.5" ry="30" cy="31.891" cx="31.679"/>
<path id="path10" d="m44.904 42.891c-4.989 0-8.44-5.5-13.224-5.5s-8.533 5.5-13.225 5.5c-6.156 0-10.702-5.344-10.776-14.5-0.046-5.685 1.805-7.5 9.8-7.5s10.328 3 14.2 3 6.214-3 14.2-3 9.842 1.815 9.8 7.5c-0.074 9.156-4.619 14.5-10.775 14.5zm-23.511-15c-4.857 0.193-6.857 2.846-6.857 3.5s3.22 2.5 6.367 2.5 6.857-1.057 6.857-2c0.001-1.052-1.781-4.182-6.367-4zm20.572 0c-4.583-0.182-6.367 2.948-6.367 4 0 0.943 3.709 2 6.857 2s6.367-1.846 6.367-2.5-2-3.307-6.857-3.5z" stroke="#670c83" stroke-width="2" fill="none"/>
<path id="circle6-3" d="m31.679 1.8915a30 30 0 0 0 -30 30 30 30 0 0 0 30 30 30 30 0 0 0 30 -30 30 30 0 0 0 -30 -30zm-14.201 19c7.995 0 10.329 3 14.201 3s6.2132-3 14.199-3c7.986 0 9.8428 1.815 9.8008 7.5-0.074 9.156-4.6194 14.5-10.775 14.5-4.989 0-8.4406-5.5-13.225-5.5-4.784 0-8.5326 5.5-13.225 5.5-6.156 0-10.701-5.344-10.775-14.5-0.046-5.685 1.8038-7.5 9.7988-7.5zm3.9141 7c-4.857 0.193-6.8555 2.846-6.8555 3.5s3.2202 2.5 6.3672 2.5 6.8555-1.057 6.8555-2c0.001-1.052-1.7812-4.182-6.3672-4zm20.572 0c-4.583-0.182-6.3672 2.948-6.3672 4 0 0.943 3.7094 2 6.8574 2s6.3672-1.846 6.3672-2.5-2.0004-3.307-6.8574-3.5z" fill="#8d20ae"/>
<circle id="circle8" stroke="#7b149a" cy="31.891" cx="31.679" r="29.5" fill="none"/>
</g>
</svg>
